<svg width="45" height="45" viewBox="0 0 75 75" fill="none" xmlns="http://www.w3.org/2000/svg">
<path opacity="0.4" d="M49.6075 5.10266H20.314C7.61776 5.10266 0 12.681 0 25.4097V54.6562C0 67.4216 7.61776 75 20.314 75H49.5707C62.3037 75 69.8847 67.4217 69.8847 54.693V25.4097C69.9215 12.681 62.3037 5.10266 49.6075 5.10266Z" fill="#F3C2EA"/>
<path d="M69.9951 5.02172C63.4078 -1.60013 56.9676 -1.74728 50.1963 5.02172L46.0378 9.14199C45.6698 9.50987 45.5594 10.0249 45.7066 10.5031C48.2826 19.5162 55.4956 26.7267 64.5118 29.3018C64.6222 29.3386 64.8062 29.3386 64.9166 29.3386C65.2846 29.3386 65.6526 29.1915 65.9102 28.934L69.9951 24.8137C73.344 21.466 75 18.2654 75 14.9913C75 11.6804 73.344 8.40623 69.9951 5.02172ZM58.3661 32.3994C57.3724 31.9212 56.4156 31.4429 55.5324 30.8911C54.7964 30.4496 54.0604 29.9714 53.3611 29.4564C52.9519 29.2007 52.5071 28.8561 52.0514 28.4844C51.6479 28.1553 51.227 27.838 50.8587 27.4698V27.4698C49.7179 26.5501 48.5034 25.2993 47.3626 23.9381V23.9381C46.9914 23.567 46.7008 23.1206 46.3768 22.7077C46.0908 22.3433 45.7748 21.9033 45.4858 21.4366C45.081 20.9215 44.6026 20.1858 44.1609 19.4132C43.6089 18.4935 43.1305 17.5738 42.6889 16.6173V16.6173C42.0742 15.2937 40.3249 14.897 39.2928 15.9288L21.7125 33.503C20.4244 34.7906 19.1732 37.2186 18.9156 39.0213L17.3332 49.9841C17.002 52.3017 17.6276 54.4722 19.0628 55.907C20.2772 57.121 21.9333 57.7464 23.7733 57.7464C24.1781 57.7464 24.5829 57.7096 24.9877 57.6728L35.9176 56.1277C37.7208 55.8702 40.1497 54.6562 41.4377 53.3318L59.0512 35.7244C60.0486 34.7273 59.6624 32.9548 58.3661 32.3994V32.3994Z" fill="#F3C2EA"/>
</svg>
