<svg width="45" height="45" viewBox="0 0 75 75" fill="none" xmlns="http://www.w3.org/2000/svg">
<path opacity="0.4" d="M53.239 0H21.7984C8.14156 0 0 8.1375 0 21.7875V53.175C0 66.8625 8.14156 75 21.7984 75H53.2015C66.8583 75 74.9999 66.8625 74.9999 53.2125V21.7875C75.0374 8.1375 66.8958 0 53.239 0Z" fill="#F3C2EA"/>
<path d="M45.9979 37.5L45.3089 37.2583C42.3279 36.2125 40.3326 33.398 40.3326 30.2389V24.1507C40.3326 23.4047 40.9373 22.8 41.6832 22.8V22.8C44.7223 22.8 47.1985 25.4625 47.1985 28.725C47.1985 30.2625 48.4741 31.5375 50.0124 31.5375C51.5507 31.5375 52.8263 30.2625 52.8263 28.725C52.8263 22.35 47.8363 17.175 41.6832 17.175V17.175C40.9373 17.175 40.3326 16.5703 40.3326 15.8243V15C40.3326 13.4625 39.0569 12.1875 37.5187 12.1875C35.9804 12.1875 34.7048 13.4625 34.7048 15V15C34.7048 16.2012 33.731 17.175 32.5298 17.175H32.2661C26.7133 17.175 22.1735 21.8625 22.1735 27.6C22.1735 34.3125 26.0755 36.45 29.0394 37.5L29.7431 37.7469C32.7153 38.7896 34.7048 41.5958 34.7048 44.7456V50.8118C34.7048 51.5578 34.1001 52.1625 33.3541 52.1625V52.1625C30.3151 52.1625 27.8388 49.5 27.8388 46.2375C27.8388 44.7 26.5632 43.425 25.0249 43.425C23.4867 43.425 22.211 44.7 22.211 46.2375C22.211 52.6125 27.201 57.7875 33.3541 57.7875V57.7875C34.1001 57.7875 34.7048 58.3922 34.7048 59.1382V60C34.7048 61.5375 35.9804 62.8125 37.5187 62.8125C39.0569 62.8125 40.3326 61.5375 40.3326 60V60C40.3326 58.7988 41.3064 57.825 42.5076 57.825H42.7713C48.3241 57.825 52.8638 53.1375 52.8638 47.4C52.8263 40.65 48.9244 38.5125 45.9979 37.5ZM30.9154 32.2125C29.0019 31.5375 27.8388 30.9 27.8388 27.6375C27.8388 24.975 29.8273 22.8375 32.3036 22.8375V22.8375C33.6504 22.8375 34.7423 23.9294 34.7423 25.2762V29.5045C34.7423 31.4855 32.7836 32.8716 30.9154 32.2125V32.2125ZM42.7713 52.2V52.2C41.4244 52.2 40.3326 51.1082 40.3326 49.7613V45.4853C40.3326 43.5225 42.2673 42.1451 44.122 42.7875V42.7875C46.0354 43.4625 47.1985 44.1 47.1985 47.3625C47.1985 50.025 45.21 52.2 42.7713 52.2Z" fill="#F3C2EA"/>
</svg>
