<svg width="49" height="45" viewBox="0 0 79 75" fill="none" xmlns="http://www.w3.org/2000/svg">
<path opacity="0.4" d="M79 21.7875V53.2125C79 66.8625 70.4285 75 56.0505 75H22.9495C22.1595 75 21.3695 74.9625 20.619 74.925C15.7605 74.625 11.6525 73.3125 8.4135 71.0625C6.7545 69.975 5.293 68.5875 4.1475 67.0125C1.422 63.45 0 58.8 0 53.2125V21.7875C0 8.8875 7.663 0.9 20.619 0.1125C21.3695 0.0374999 22.1595 0 22.9495 0H56.0505C61.936 0 66.834 1.35 70.5865 3.9375C72.2455 5.025 73.707 6.4125 74.8525 7.9875C77.578 11.55 79 16.2 79 21.7875Z" fill="#F3C2EA"/>
<path d="M24.332 17.4301H54.6285C57.1565 17.4301 59.2105 19.3801 59.2105 21.7801V26.5801C59.2105 28.3426 58.065 30.5176 56.9195 31.6051L47.0445 39.8926C45.662 40.9801 44.7535 43.1551 44.7535 44.9176V54.2926C44.7535 55.6051 43.845 57.3301 42.6995 58.0051L39.5 59.9176C36.498 61.6801 32.39 59.6926 32.39 56.2051V44.6551C32.39 43.1176 31.4815 41.1676 30.5335 40.0801L21.804 31.3426C20.6585 30.2926 19.75 28.3051 19.75 26.9926V22.0051C19.75 19.3801 21.804 17.4301 24.332 17.4301Z" fill="#F3C2EA"/>
</svg>
