<svg width="70" height="70" viewBox="0 0 70 70" fill="none" xmlns="http://www.w3.org/2000/svg">
<path opacity="0.4" d="M2.63097 58.3868C1.19609 58.3868 0.00619924 57.1909 0.00619924 55.7488V35.7004C-0.168785 26.1685 3.3659 17.1643 9.94532 10.4111C16.5247 3.69314 25.344 0 34.8281 0C54.2164 0 70 15.8629 70 35.3486V55.3971C70 56.8392 68.8101 58.0351 67.3752 58.0351C65.9404 58.0351 64.7505 56.8392 64.7505 55.3971V35.3486C64.7505 18.7823 51.3466 5.27592 34.8281 5.27592C26.7438 5.27592 19.2545 8.40629 13.69 14.1043C8.09048 19.8374 5.11575 27.4699 5.25573 35.63V55.7137C5.25573 57.1909 4.10084 58.3868 2.63097 58.3868Z" fill="url(#paint0_linear_113_105)"/>
<path d="M13.795 36.5797H13.34C5.99066 36.5797 0.00619507 42.5942 0.00619507 49.9805V56.593C0.00619507 63.9792 5.99066 69.9938 13.34 69.9938H13.795C21.1443 69.9938 27.1288 63.9792 27.1288 56.593V49.9805C27.1288 42.5942 21.1443 36.5797 13.795 36.5797ZM56.6662 36.5797H56.2112C48.8619 36.5797 42.8774 42.5942 42.8774 49.9805V56.593C42.8774 63.9792 48.8619 69.9938 56.2112 69.9938H56.6662C64.0155 69.9938 70 63.9792 70 56.593V49.9805C70 42.5942 64.0155 36.5797 56.6662 36.5797Z" fill="url(#paint1_linear_113_105)"/>
<defs>
<linearGradient id="paint0_linear_113_105" x1="38.9667" y1="9.73113" x2="15.8923" y2="46.345" gradientUnits="userSpaceOnUse">
<stop stop-color="#D6717D"/>
<stop offset="1" stop-color="#FFE7E7"/>
</linearGradient>
<linearGradient id="paint1_linear_113_105" x1="38.9694" y1="42.1487" x2="29.6255" y2="68.0541" gradientUnits="userSpaceOnUse">
<stop stop-color="#D6717D"/>
<stop offset="1" stop-color="#FFE7E7"/>
</linearGradient>
</defs>
</svg>
